<svg version="1.1" id="Layer_1" xmlns="http://www.w3.org/2000/svg" xmlns:xlink="http://www.w3.org/1999/xlink" x="0px" y="0px"
	 width="100%" viewBox="0 0 224 225" enable-background="new 0 0 224 225" xml:space="preserve">
<path fill="#C3C3C3" opacity="1.000000" stroke="none" 
	d="
M225.000000,217.000000 
	C225.000000,219.993683 225.000000,222.987366 225.000000,225.985779 
	C150.333328,225.990524 75.666664,225.990524 1.000000,225.990997 
	C1.000000,224.660965 1.000000,223.330444 1.210975,221.491425 
	C1.421951,220.982925 1.844220,220.987717 1.934654,221.426865 
	C1.928983,225.374130 4.597865,224.196350 6.280381,224.197693 
	C77.255814,224.254303 148.231293,224.259506 219.206772,224.257645 
	C220.517731,224.257614 221.828705,224.095963 223.331863,223.997070 
	C223.527664,221.548569 223.710220,219.265762 224.169327,217.003006 
	C224.630600,217.015366 224.815292,217.007675 225.000000,217.000000 
z"/>
<path fill="#F6F6F6" opacity="1.000000" stroke="none" 
	d="
M1.000000,3.000000 
	C1.166667,2.333333 1.229735,1.149261 1.518317,1.091479 
	C2.640014,0.866886 3.833333,1.000000 5.000000,1.000000 
	C77.000000,1.000000 149.000000,0.994614 220.999969,1.041652 
	C222.333511,1.042524 223.666672,1.666666 224.751923,2.514488 
	C224.185211,2.903645 223.858337,2.876057 223.044495,2.778359 
	C151.187393,2.617805 79.808998,2.621948 8.430615,2.647618 
	C6.283456,2.648390 4.136378,2.874357 1.741886,2.983678 
	C1.494510,2.972024 1.000000,3.000000 1.000000,3.000000 
z"/>
<path fill="#D1D1D1" opacity="1.000000" stroke="none" 
	d="
M1.000000,3.468657 
	C1.000000,3.000000 1.494510,2.972024 1.740888,3.452661 
	C1.988408,67.140244 1.995432,130.347198 1.984148,193.554138 
	C1.982515,202.698669 1.893044,211.843185 1.844220,220.987717 
	C1.844220,220.987717 1.421951,220.982925 1.210975,220.991455 
	C1.000000,148.645767 1.000000,76.291542 1.000000,3.468657 
z"/>
<path fill="#F6F6F6" opacity="1.000000" stroke="none" 
	d="
M225.000000,216.531342 
	C224.815292,217.007675 224.630600,217.015366 224.098328,216.540039 
	C223.745377,147.200806 223.739136,78.344597 223.742035,9.488386 
	C223.742081,8.329079 223.853119,7.169774 224.184189,6.000217 
	C224.637344,5.993311 224.818680,5.996655 225.000000,6.000000 
	C225.000000,76.020897 225.000000,146.041794 225.000000,216.531342 
z"/>
<path fill="#C3C3C3" opacity="1.000000" stroke="none" 
	d="
M225.000000,5.625000 
	C224.818680,5.996655 224.637344,5.993311 224.048309,5.719020 
	C223.601456,4.614121 223.562332,3.780169 223.523209,2.946216 
	C223.858337,2.876057 224.185211,2.903645 224.751923,3.014489 
	C225.000000,3.750000 225.000000,4.500000 225.000000,5.625000 
z"/>
<path fill="#040404" opacity="1.000000" stroke="none" 
	d="
M223.044495,2.778359 
	C223.562332,3.780169 223.601456,4.614121 223.776459,5.729271 
	C223.853119,7.169774 223.742081,8.329079 223.742035,9.488386 
	C223.739136,78.344597 223.745377,147.200806 223.821747,216.519989 
	C223.710220,219.265762 223.527664,221.548569 223.331863,223.997070 
	C221.828705,224.095963 220.517731,224.257614 219.206772,224.257645 
	C148.231293,224.259506 77.255814,224.254303 6.280381,224.197693 
	C4.597865,224.196350 1.928983,225.374130 1.934654,221.426865 
	C1.893044,211.843185 1.982515,202.698669 1.984148,193.554138 
	C1.995432,130.347198 1.988408,67.140244 1.988264,3.464314 
	C4.136378,2.874357 6.283456,2.648390 8.430615,2.647618 
	C79.808998,2.621948 151.187393,2.617805 223.044495,2.778359 
M90.890930,173.834976 
	C91.250610,172.219849 91.610291,170.604721 92.518127,168.497681 
	C93.389061,166.661575 94.259995,164.825470 95.396111,162.430313 
	C96.248726,163.710251 96.676682,164.352692 97.118149,165.686005 
	C97.629517,165.603455 98.140884,165.520905 98.905731,164.617661 
	C98.970909,161.745331 99.036079,158.872986 99.140518,155.389389 
	C98.765289,155.326202 98.390053,155.263031 97.144653,155.148773 
	C94.862770,154.974838 92.580894,154.800903 90.193756,154.698944 
	C90.193756,154.698944 90.269043,154.590759 89.748344,154.069366 
	C88.784286,153.688950 87.438530,153.588104 86.920555,152.880966 
	C84.327461,149.340805 81.951263,145.641785 78.817284,140.986191 
	C84.821289,143.456726 90.059860,145.612305 95.550453,147.871567 
	C95.468750,146.391266 95.403748,145.213455 95.328987,143.858932 
	C96.394524,143.858932 97.059052,143.768845 97.691742,143.872711 
	C105.023109,145.076324 106.478157,143.761185 105.922371,136.065109 
	C105.780396,134.099182 105.576164,131.931366 104.657578,130.266129 
	C101.763023,125.018806 102.627342,119.653915 103.557289,114.234161 
	C104.189316,110.550674 104.908165,106.882080 105.611771,103.079346 
	C106.517776,103.570915 107.600098,104.158142 109.004509,104.920128 
	C108.869675,94.294044 108.605888,84.158546 102.198639,75.270569 
	C100.744484,78.026352 99.555717,80.279182 98.366959,82.532021 
	C97.645126,78.469948 99.060059,74.732040 98.148705,71.691368 
	C94.018623,57.911613 86.615410,46.585117 71.935860,42.056141 
	C61.421925,38.812351 56.672615,40.516659 51.009102,48.207047 
	C48.311142,46.394146 45.565697,43.098434 43.092003,43.291142 
	C40.568073,43.487759 38.126701,46.954426 36.077671,49.355156 
	C35.613144,49.899414 36.916119,51.952244 37.531517,53.660423 
	C33.962017,57.279572 34.169739,62.184322 34.317604,67.289719 
	C34.586227,76.564667 37.680050,86.127945 31.980074,94.972450 
	C31.547266,95.644035 32.081909,97.739510 32.805561,98.229156 
	C38.513832,102.091568 44.282383,105.820786 47.094627,113.243141 
	C47.437454,113.841515 47.780277,114.439880 48.104744,115.790237 
	C48.715092,117.085999 49.325439,118.381760 49.369713,118.475754 
	C47.594456,126.829727 46.007465,134.297745 44.251999,142.558609 
	C48.423153,145.069946 54.098068,145.260651 59.905342,142.936157 
	C60.353542,142.756775 60.301353,141.327286 60.910511,140.081375 
	C61.050854,139.946381 61.191196,139.811371 62.045689,139.969421 
	C65.069504,143.114212 62.880730,144.892899 60.106804,145.711044 
	C55.584320,147.044922 54.193581,149.861237 54.466293,154.287918 
	C54.741642,158.757431 54.412289,163.262589 54.644268,167.736786 
	C54.929821,173.244217 57.075325,174.377823 62.420357,173.800232 
	C68.921837,173.097672 75.511543,173.211609 82.266624,173.739105 
	C81.904091,175.513290 81.541557,177.287460 80.744400,179.604599 
	C77.331650,183.633453 73.918900,187.662308 70.132545,191.189194 
	C69.994308,191.032990 69.856064,190.876801 69.874557,190.031433 
	C71.226936,187.013474 72.824783,184.074707 73.834328,180.946121 
	C74.388802,179.227798 73.952042,177.189621 73.962204,175.295670 
	C72.197235,175.452896 70.365494,175.361053 68.679550,175.813049 
	C63.147018,177.296341 57.661133,179.045578 53.504967,174.677902 
	C48.639240,177.033859 44.246704,179.160690 39.208103,181.600342 
	C41.685951,184.539780 44.161160,187.476089 47.316475,191.219193 
	C41.005150,190.099991 35.643059,189.149124 30.280970,188.198257 
	C30.188904,188.787354 30.096836,189.376450 30.004768,189.965546 
	C37.019527,191.452621 44.034283,192.939682 51.049042,194.426758 
	C51.019440,194.726074 50.989834,195.025406 50.960228,195.324722 
	C49.505535,195.870468 48.050838,196.416199 46.596142,196.961945 
	C46.688030,197.387589 46.779915,197.813232 46.871803,198.238876 
	C52.023815,197.805847 57.175823,197.372818 62.327835,196.939774 
	C62.039406,197.332108 61.750973,197.724426 61.462543,198.116760 
	C62.448299,198.984543 63.434055,199.852325 64.428230,200.727524 
	C58.246178,205.677856 51.715889,210.907043 45.185596,216.136215 
	C47.261940,216.643143 49.165001,216.463333 50.608650,215.554108 
	C57.128151,211.447998 63.103939,206.834503 68.817947,201.445068 
	C75.172394,195.451569 78.970169,188.711594 82.800720,181.019058 
	C83.286842,182.907532 83.772964,184.796021 84.259087,186.684509 
	C84.607895,186.666107 84.956703,186.647705 85.305519,186.629303 
	C86.945786,182.455719 88.586060,178.282135 90.890930,173.834976 
M129.618118,130.702194 
	C129.618118,130.702194 129.586945,130.688507 130.279282,131.372635 
	C135.496078,128.744812 137.587204,124.440773 136.925583,117.345634 
	C136.502274,112.806320 134.750702,108.898155 130.221786,107.184120 
	C125.147377,105.263603 120.182274,106.138138 116.505913,110.085388 
	C113.250313,113.580872 110.614403,117.747246 113.128075,123.827362 
	C112.782784,124.747803 112.278969,125.641609 112.119064,126.593201 
	C111.337730,131.242966 108.517776,137.312057 110.440140,140.229111 
	C113.125923,144.304611 111.470444,144.874893 109.319427,147.190491 
	C108.233559,148.359436 108.532555,150.814819 108.205368,152.688538 
	C110.095085,152.866379 111.982468,153.136551 113.875473,153.184464 
	C114.875465,153.209793 115.885262,152.847961 117.432693,153.185867 
	C117.790756,153.924042 118.212746,154.638611 118.495583,155.404556 
	C119.600967,158.397964 122.127098,161.903290 118.174103,164.182877 
	C114.024170,166.576050 111.980705,162.733749 109.973091,159.955170 
	C108.723564,158.225800 107.739037,156.304947 106.635582,154.470016 
	C106.143730,154.703430 105.651886,154.936844 105.160034,155.170258 
	C106.404907,158.431839 107.409409,161.813156 108.958389,164.923294 
	C110.706322,168.432892 114.090378,170.394608 117.603096,168.612946 
	C119.988602,167.402985 122.457420,164.397430 122.930710,161.833420 
	C123.653137,157.919693 121.731438,154.193192 117.888222,152.061020 
	C117.739151,151.978333 117.201714,152.595673 115.462395,152.573349 
	C115.400986,152.104706 115.339569,151.636078 115.951447,151.262192 
	C115.755302,150.833298 115.559158,150.404404 115.093262,149.294846 
	C117.775291,145.215744 120.457314,141.136642 123.740875,136.745285 
	C125.716331,134.778351 127.691788,132.811401 129.618118,130.702194 
M126.479118,215.928284 
	C126.989090,216.231201 127.499062,216.534103 128.723679,216.980255 
	C129.432007,216.841995 130.739761,216.518051 130.762711,216.592117 
	C131.937012,220.382858 135.091843,218.978882 137.435806,218.941574 
	C141.368240,218.878922 145.366638,217.645279 149.205902,218.075867 
	C159.327621,219.211029 165.886047,213.673965 172.696472,206.816391 
	C212.259277,169.504120 220.759247,111.391251 193.637314,65.323494 
	C168.154785,22.040339 119.648323,5.026647 86.791588,9.098673 
	C88.660507,9.793406 89.989960,10.328015 91.345619,10.784846 
	C99.013084,13.368644 105.333572,17.304409 108.592056,25.359076 
	C109.777199,28.288630 112.220703,31.095245 114.796005,33.006996 
	C124.115524,39.925236 126.633095,49.234390 126.008446,60.250160 
	C125.779961,64.279518 127.123787,68.398026 127.802963,72.818390 
	C127.654366,72.846481 126.435501,73.076881 124.826431,73.381050 
	C131.827148,78.192795 142.700119,74.960129 147.319229,84.397049 
	C143.633530,83.010529 140.472229,81.821289 137.310928,80.632042 
	C141.188187,87.584534 145.671082,93.516174 140.805801,101.636208 
	C139.889084,99.978874 139.156357,98.654205 137.658997,95.947144 
	C137.658997,101.176239 136.234238,105.811096 137.926071,108.441002 
	C143.006287,116.337990 145.095520,123.719810 138.045868,132.688599 
	C144.985367,137.066849 151.510757,141.183823 157.918106,145.226334 
	C153.225662,150.063385 147.885071,147.730759 142.742828,144.084061 
	C140.570175,149.502563 141.462540,151.015686 146.651703,150.803711 
	C151.202087,150.617813 155.247726,151.181686 158.214645,155.146011 
	C160.753159,158.537949 163.471756,161.795074 166.998749,166.227951 
	C162.963043,166.858856 159.645248,167.377518 155.784882,167.981018 
	C159.232162,174.042145 160.803833,180.440048 152.401535,185.366501 
	C154.771805,186.891464 156.389465,187.932220 157.979691,189.919968 
	C157.967102,190.235504 157.954498,190.551056 157.238876,190.851227 
	C150.990265,190.368195 149.093307,187.622711 149.994766,181.493011 
	C150.326904,179.234634 149.332184,176.781128 148.821121,173.678848 
	C143.055023,179.444504 142.200485,184.352905 146.842163,189.248764 
	C152.387466,195.097763 153.861496,202.759003 157.539093,209.397049 
	C158.021698,210.268143 157.920975,211.462402 158.098038,212.553909 
	C154.187195,211.905136 150.682465,211.323730 146.773178,210.675201 
	C147.466858,209.544983 148.048218,208.597748 148.848831,207.293304 
	C142.466019,203.335419 136.465698,199.515640 130.356110,195.879440 
	C128.190262,194.590424 125.819954,193.880219 125.979401,197.982727 
	C125.979401,197.982727 125.938904,197.896866 125.404709,197.896362 
	C125.219810,197.600220 125.034912,197.304062 124.951981,196.455475 
	C124.801125,196.111038 124.650269,195.766586 124.499413,195.422150 
	C124.105736,195.663773 123.661537,195.853500 123.338608,196.167831 
	C123.163849,196.337906 123.196045,196.720612 123.000275,197.933685 
	C123.000275,204.725296 123.000275,211.516907 123.000275,219.347473 
	C124.156128,217.960617 124.997604,216.950974 126.479118,215.928284 
M93.182480,218.044418 
	C94.834610,218.044418 96.486748,218.044418 98.263924,218.044418 
	C97.755562,217.125580 97.422333,216.523300 97.556374,216.765564 
	C100.955574,215.711533 105.397095,215.630722 106.882195,213.494553 
	C108.257080,211.516953 106.468765,207.340225 106.028458,203.766937 
	C107.949295,206.017014 109.647362,208.006149 112.581070,211.442719 
	C114.672768,205.490723 116.412033,200.804688 117.906601,196.041855 
	C118.170189,195.201874 117.531693,193.215698 117.105896,193.153427 
	C111.696884,192.362701 113.046387,188.396927 112.962570,184.978470 
	C112.873993,181.365631 112.978409,177.605179 109.256294,173.767334 
	C109.255852,182.074905 104.943916,186.846054 100.609787,191.671021 
	C96.284225,196.486481 89.790970,197.853622 84.668747,197.316742 
	C79.690369,196.794907 78.546021,199.218338 75.763855,201.768494 
	C77.383598,201.971405 78.498810,202.111099 79.529938,202.240265 
	C74.996620,207.512787 70.695488,212.515259 65.933083,218.054214 
	C75.635124,218.054214 83.945992,218.054214 93.182480,218.044418 
M33.464703,155.141144 
	C30.374214,160.498383 33.375057,163.834610 38.070114,166.608719 
	C24.973515,166.032013 24.973515,166.032013 24.435328,170.161392 
	C30.583269,171.306747 36.633640,172.465118 42.696411,173.554504 
	C48.587852,174.613113 51.818764,172.394287 52.042713,166.403137 
	C52.202137,162.138306 51.768417,157.741653 50.812687,153.584717 
	C50.212326,150.973434 48.670658,147.470520 46.612324,146.607758 
	C44.466537,145.708313 40.821907,146.891266 38.523155,148.294800 
	C36.465443,149.551178 35.347538,152.346771 33.464703,155.141144 
M26.729399,97.615807 
	C26.247425,98.242973 25.241991,99.290016 25.359407,99.436401 
	C29.084555,104.080574 32.743576,108.804054 36.841045,113.107597 
	C38.098324,114.428116 40.601395,114.562500 42.533985,115.240044 
	C42.691341,114.835953 42.848701,114.431862 43.006058,114.027771 
	C37.752155,108.731163 32.498257,103.434563 26.729399,97.615807 
M20.375610,111.945541 
	C20.215832,110.354973 20.056055,108.764404 19.893045,107.141640 
	C15.800414,108.233910 15.103328,110.055908 17.577682,112.722504 
	C20.554031,115.930107 25.177816,116.118225 30.998280,113.268524 
	C27.302034,109.393471 27.258905,109.425079 23.199589,113.142792 
	C22.895676,113.421143 21.744947,112.774872 20.375610,111.945541 
z"/>
<path fill="#F4F4F4" opacity="1.000000" stroke="none" 
	d="
M158.007126,188.972977 
	C156.389465,187.932220 154.771805,186.891464 152.401535,185.366501 
	C160.803833,180.440048 159.232162,174.042145 155.784882,167.981018 
	C159.645248,167.377518 162.963043,166.858856 166.998749,166.227951 
	C163.471756,161.795074 160.753159,158.537949 158.214645,155.146011 
	C155.247726,151.181686 151.202087,150.617813 146.651703,150.803711 
	C141.462540,151.015686 140.570175,149.502563 142.742828,144.084061 
	C147.885071,147.730759 153.225662,150.063385 157.918106,145.226334 
	C151.510757,141.183823 144.985367,137.066849 138.045868,132.688599 
	C145.095520,123.719810 143.006287,116.337990 137.926071,108.441002 
	C136.234238,105.811096 137.658997,101.176239 137.658997,95.947144 
	C139.156357,98.654205 139.889084,99.978874 140.805801,101.636208 
	C145.671082,93.516174 141.188187,87.584534 137.310928,80.632042 
	C140.472229,81.821289 143.633530,83.010529 147.319229,84.397049 
	C142.700119,74.960129 131.827148,78.192795 124.826431,73.381050 
	C126.435501,73.076881 127.654366,72.846481 127.802963,72.818390 
	C127.123787,68.398026 125.779961,64.279518 126.008446,60.250160 
	C126.633095,49.234390 124.115524,39.925236 114.796005,33.006996 
	C112.220703,31.095245 109.777199,28.288630 108.592056,25.359076 
	C105.333572,17.304409 99.013084,13.368644 91.345619,10.784846 
	C89.989960,10.328015 88.660507,9.793406 86.791588,9.098673 
	C119.648323,5.026647 168.154785,22.040339 193.637314,65.323494 
	C220.759247,111.391251 212.259277,169.504120 172.045059,206.860962 
	C170.307236,205.935745 169.220810,204.965942 168.080017,203.571243 
	C168.342850,195.351669 165.343781,191.108826 158.007126,188.972977 
z"/>
<path fill="#EFEFEF" opacity="1.000000" stroke="none" 
	d="
M90.299011,154.626984 
	C92.580894,154.800903 94.862770,154.974838 97.714218,155.364471 
	C98.510498,155.809296 98.782990,155.949463 99.101257,156.000656 
	C99.036079,158.872986 98.970909,161.745331 98.402573,164.879211 
	C97.634491,165.092224 97.369568,165.043686 97.104630,164.995132 
	C96.676682,164.352692 96.248726,163.710251 95.396111,162.430313 
	C94.259995,164.825470 93.389061,166.661575 91.844315,168.747406 
	C87.211304,168.705597 88.106125,171.627274 87.678932,173.987350 
	C85.623543,173.736603 83.843315,173.354477 82.063087,172.972336 
	C75.511543,173.211609 68.921837,173.097672 62.420357,173.800232 
	C57.075325,174.377823 54.929821,173.244217 54.644268,167.736786 
	C54.412289,163.262589 54.741642,158.757431 54.466293,154.287918 
	C54.193581,149.861237 55.584320,147.044922 60.106804,145.711044 
	C62.880730,144.892899 65.069504,143.114212 61.599964,139.575287 
	C60.843002,139.046051 60.531765,138.910934 60.078651,138.495117 
	C59.389992,138.231186 58.843208,138.247971 58.296425,138.264771 
	C58.729355,138.641464 59.162281,139.018173 59.665161,139.630203 
	C59.909275,140.160919 60.158157,140.365356 60.481750,140.478836 
	C60.301353,141.327286 60.353542,142.756775 59.905342,142.936157 
	C54.098068,145.260651 48.423153,145.069946 44.251999,142.558609 
	C46.007465,134.297745 47.594456,126.829727 49.369713,118.475754 
	C49.325439,118.381760 48.715092,117.085999 48.404480,115.302490 
	C48.184578,114.049294 47.664944,113.283859 47.145309,112.518425 
	C44.282383,105.820786 38.513832,102.091568 32.805561,98.229156 
	C32.081909,97.739510 31.547266,95.644035 31.980074,94.972450 
	C37.680050,86.127945 34.586227,76.564667 34.317604,67.289719 
	C34.169739,62.184322 33.962017,57.279572 37.531517,53.660423 
	C36.916119,51.952244 35.613144,49.899414 36.077671,49.355156 
	C38.126701,46.954426 40.568073,43.487759 43.092003,43.291142 
	C45.565697,43.098434 48.311142,46.394146 51.009102,48.207047 
	C56.672615,40.516659 61.421925,38.812351 71.935860,42.056141 
	C86.615410,46.585117 94.018623,57.911613 98.148705,71.691368 
	C99.060059,74.732040 97.645126,78.469948 98.366959,82.532021 
	C99.555717,80.279182 100.744484,78.026352 102.198639,75.270569 
	C108.605888,84.158546 108.869675,94.294044 109.004509,104.920128 
	C107.600098,104.158142 106.517776,103.570915 105.611771,103.079346 
	C104.908165,106.882080 104.189316,110.550674 103.557289,114.234161 
	C102.627342,119.653915 101.763023,125.018806 104.657578,130.266129 
	C105.576164,131.931366 105.780396,134.099182 105.922371,136.065109 
	C106.478157,143.761185 105.023109,145.076324 97.691742,143.872711 
	C97.059052,143.768845 96.394524,143.858932 95.328987,143.858932 
	C95.403748,145.213455 95.468750,146.391266 95.550453,147.871567 
	C90.059860,145.612305 84.821289,143.456726 78.817284,140.986191 
	C81.951263,145.641785 84.327461,149.340805 86.920555,152.880966 
	C87.438530,153.588104 88.784286,153.688950 89.701782,154.465820 
	C89.265518,155.503815 88.875816,156.145355 88.486115,156.786896 
	C88.881676,156.945755 89.277245,157.104614 89.672806,157.263458 
	C89.881538,156.384644 90.090279,155.505814 90.299011,154.626984 
M87.779510,118.161301 
	C86.186539,118.774757 84.593575,119.388214 82.621803,119.511276 
	C82.123032,119.854401 81.624260,120.197517 81.125481,120.540634 
	C81.807991,121.001831 82.490509,121.463028 84.049408,121.922714 
	C88.923904,122.590012 93.798401,123.257309 98.313927,123.875473 
	C96.739838,118.835274 95.070877,113.491310 93.271912,107.731064 
	C92.740891,109.738144 92.658020,111.671776 91.749458,113.068192 
	C90.655655,114.749298 88.860062,115.973793 87.108353,116.681793 
	C87.563416,114.517555 88.018478,112.353325 88.286377,109.363037 
	C88.314102,108.238892 88.341827,107.114754 88.651634,105.899017 
	C88.834389,105.791428 88.944550,105.633270 89.725800,105.236595 
	C90.483322,105.230492 91.240845,105.224388 92.154442,105.575417 
	C92.302292,105.801590 92.503319,105.960495 93.342865,106.983635 
	C94.214607,106.101974 95.086349,105.220314 96.849335,103.437271 
	C89.944977,104.050209 84.629913,104.522057 79.314857,104.993904 
	C79.235886,104.587425 79.156914,104.180946 79.077942,103.774467 
	C83.895355,101.871101 88.755013,100.063362 93.489456,97.972168 
	C94.297676,97.615173 94.570343,96.045685 94.442406,94.972885 
	C94.226158,94.954460 94.009903,94.936028 94.135796,94.261604 
	C95.396591,93.800270 96.657394,93.338936 97.658562,92.972603 
	C94.763596,91.509758 92.261200,89.997009 89.571098,88.981468 
	C88.021149,88.396347 85.869621,87.971855 84.510757,88.601463 
	C81.342415,90.069443 78.489670,92.218552 74.797028,94.539230 
	C74.797028,91.339050 74.797028,89.151482 74.797028,86.963913 
	C74.296623,86.843643 73.796219,86.723381 73.295815,86.603111 
	C72.083252,90.319092 70.870689,94.035065 69.658127,97.751038 
	C69.270340,97.729057 68.882561,97.707077 68.494774,97.685089 
	C66.931877,88.398476 65.368980,79.111855 63.762913,69.568710 
	C59.712715,82.592041 67.104065,96.450081 58.637180,108.638733 
	C56.447029,111.791603 57.376453,115.418533 60.477417,117.160248 
	C59.072567,119.545898 57.833149,121.650620 56.593727,123.755341 
	C56.998901,124.145126 57.404079,124.534904 57.809254,124.924690 
	C60.195774,121.138947 62.937473,121.794044 66.159004,123.351151 
	C71.756210,126.056541 77.538986,128.378006 83.243965,130.860443 
	C83.453773,130.427643 83.663589,129.994843 83.873405,129.562042 
	C81.249413,127.759674 78.625420,125.957306 75.981339,124.141144 
	C76.713219,123.018539 77.326904,122.077240 77.940445,120.421394 
	C76.963348,119.937607 75.986252,119.453827 74.204063,118.819016 
	C71.692497,118.510483 69.180931,118.201950 66.669365,117.893410 
	C66.562309,117.484550 66.455261,117.075684 66.348213,116.666824 
	C69.938354,115.197830 73.528488,113.728828 77.650032,112.042397 
	C78.288200,112.401337 79.506592,113.086617 81.274376,114.080902 
	C81.852127,112.554581 82.315254,111.278175 82.819069,110.018044 
	C83.175194,109.127296 83.586411,108.258568 83.973038,107.380013 
	C84.742073,108.037109 85.511108,108.694206 86.084785,110.157341 
	C84.968414,112.285522 83.852043,114.413696 82.690987,116.627068 
	C84.406364,116.958908 85.823517,117.233063 87.779510,118.161301 
M44.834667,92.415176 
	C44.402664,89.950699 43.970657,87.486229 43.538651,85.021751 
	C43.033482,85.106819 42.528313,85.191895 42.023140,85.276962 
	C42.107014,90.960396 41.405960,96.945534 45.323620,101.819557 
	C46.687298,103.516121 50.087788,104.708542 52.234364,104.324066 
	C54.379875,103.939781 57.419258,101.545158 57.795029,99.594238 
	C58.920753,93.749664 58.935837,87.691170 59.384441,81.716171 
	C57.872559,85.235596 57.524761,88.826691 56.875637,92.362473 
	C56.223515,95.914574 55.823074,100.333878 51.344841,100.765465 
	C46.489956,101.233345 46.100018,96.627159 44.834667,92.415176 
M49.708000,69.449173 
	C49.708000,78.479958 49.708000,87.510750 49.708000,96.541534 
	C50.217720,96.532936 50.727440,96.524345 51.237160,96.515747 
	C51.237160,86.770195 51.237160,77.024651 51.237160,67.279099 
	C50.912518,67.270126 50.587875,67.261154 50.263229,67.252174 
	C50.101898,67.701439 49.940567,68.150696 49.708000,69.449173 
M77.200165,115.139458 
	C77.423416,115.530952 77.613945,115.949982 77.899300,116.289253 
	C77.952347,116.352341 78.386833,116.094612 78.645279,115.984940 
	C78.323982,115.692703 78.002686,115.400459 77.200165,115.139458 
M90.524658,161.626678 
	C90.470284,161.838760 90.415909,162.050827 90.361542,162.262909 
	C90.495331,162.126678 90.629112,161.990448 90.524658,161.626678 
M89.367195,159.526215 
	C89.158020,159.472275 88.948837,159.418350 88.739655,159.364426 
	C88.874138,159.497086 89.008621,159.629761 89.367195,159.526215 
z"/>
<path fill="#EBEBEB" opacity="1.000000" stroke="none" 
	d="
M92.719673,218.049316 
	C83.945992,218.054214 75.635124,218.054214 65.933083,218.054214 
	C70.695488,212.515259 74.996620,207.512787 79.529938,202.240265 
	C78.498810,202.111099 77.383598,201.971405 75.763855,201.768494 
	C78.546021,199.218338 79.690369,196.794907 84.668747,197.316742 
	C89.790970,197.853622 96.284225,196.486481 100.609787,191.671021 
	C104.943916,186.846054 109.255852,182.074905 109.256294,173.767334 
	C112.978409,177.605179 112.873993,181.365631 112.962570,184.978470 
	C113.046387,188.396927 111.696884,192.362701 117.105896,193.153427 
	C117.531693,193.215698 118.170189,195.201874 117.906601,196.041855 
	C116.412033,200.804688 114.672768,205.490723 112.581070,211.442719 
	C109.647362,208.006149 107.949295,206.017014 106.028458,203.766937 
	C106.468765,207.340225 108.257080,211.516953 106.882195,213.494553 
	C105.397095,215.630722 100.955574,215.711533 97.556374,216.765564 
	C97.422333,216.523300 97.755562,217.125580 98.263924,218.044418 
	C96.486748,218.044418 94.834610,218.044418 92.719673,218.049316 
M95.040146,215.898300 
	C95.169266,215.810776 95.307518,215.732773 95.418495,215.626328 
	C95.436882,215.608704 95.341362,215.396729 95.289688,215.392883 
	C94.410957,215.327469 93.530846,215.280746 92.651031,215.229889 
	C92.638367,215.368057 92.625702,215.506241 92.613037,215.644409 
	C93.213387,215.743271 93.813736,215.842133 95.040146,215.898300 
M112.721237,191.980453 
	C112.699471,192.445740 112.677704,192.911026 112.655930,193.376312 
	C112.850700,193.026962 113.045471,192.677612 112.721237,191.980453 
z"/>
<path fill="#EEEEEE" opacity="1.000000" stroke="none" 
	d="
M168.134384,203.996155 
	C169.220810,204.965942 170.307236,205.935745 171.726532,206.964066 
	C165.886047,213.673965 159.327621,219.211029 149.205902,218.075867 
	C145.366638,217.645279 141.368240,218.878922 137.435806,218.941574 
	C135.091843,218.978882 131.937012,220.382858 130.762711,216.592117 
	C130.739761,216.518051 129.432007,216.841995 128.362839,216.474518 
	C128.001999,213.364563 128.001999,210.760345 128.001999,208.156113 
	C127.459961,208.103943 126.917923,208.051758 126.375885,207.999573 
	C126.196953,210.646820 126.018013,213.294083 125.839081,215.941330 
	C124.997604,216.950974 124.156128,217.960617 123.000275,219.347473 
	C123.000275,211.516907 123.000275,204.725296 123.353416,197.464752 
	C124.087708,196.999847 124.468864,197.003891 124.850014,197.007919 
	C125.034912,197.304062 125.219810,197.600220 125.683441,198.300262 
	C125.755104,200.687408 125.548050,202.670639 125.340988,204.653870 
	C128.747391,201.568893 128.658508,200.402374 125.896080,197.937241 
	C125.819954,193.880219 128.190262,194.590424 130.356110,195.879440 
	C136.465698,199.515640 142.466019,203.335419 148.848831,207.293304 
	C148.048218,208.597748 147.466858,209.544983 146.773178,210.675201 
	C150.682465,211.323730 154.187195,211.905136 158.098038,212.553909 
	C157.920975,211.462402 158.021698,210.268143 157.539093,209.397049 
	C153.861496,202.759003 152.387466,195.097763 146.842163,189.248764 
	C142.200485,184.352905 143.055023,179.444504 148.821121,173.678848 
	C149.332184,176.781128 150.326904,179.234634 149.994766,181.493011 
	C149.093307,187.622711 150.990265,190.368195 157.837006,191.035614 
	C163.424988,193.531677 165.220612,198.133606 166.867706,202.873291 
	C167.029266,203.338165 167.699997,203.626099 168.134384,203.996155 
z"/>
<path fill="#EDEDED" opacity="1.000000" stroke="none" 
	d="
M82.017418,181.039795 
	C78.970169,188.711594 75.172394,195.451569 68.817947,201.445068 
	C63.103939,206.834503 57.128151,211.447998 50.608650,215.554108 
	C49.165001,216.463333 47.261940,216.643143 45.185596,216.136215 
	C51.715889,210.907043 58.246178,205.677856 64.428230,200.727524 
	C63.434055,199.852325 62.448299,198.984543 61.462543,198.116760 
	C61.750973,197.724426 62.039406,197.332108 62.327835,196.939774 
	C57.175823,197.372818 52.023815,197.805847 46.871803,198.238876 
	C46.779915,197.813232 46.688030,197.387589 46.596142,196.961945 
	C48.050838,196.416199 49.505535,195.870468 50.960228,195.324722 
	C50.989834,195.025406 51.019440,194.726074 51.049042,194.426758 
	C44.034283,192.939682 37.019527,191.452621 30.004768,189.965546 
	C30.096836,189.376450 30.188904,188.787354 30.280970,188.198257 
	C35.643059,189.149124 41.005150,190.099991 47.316475,191.219193 
	C44.161160,187.476089 41.685951,184.539780 39.208103,181.600342 
	C44.246704,179.160690 48.639240,177.033859 53.504967,174.677902 
	C57.661133,179.045578 63.147018,177.296341 68.679550,175.813049 
	C70.365494,175.361053 72.197235,175.452896 73.962204,175.295670 
	C73.952042,177.189621 74.388802,179.227798 73.834328,180.946121 
	C72.824783,184.074707 71.226936,187.013474 69.546661,190.540192 
	C69.647896,191.263031 70.077026,191.477097 70.506149,191.691177 
	C73.918900,187.662308 77.331650,183.633453 81.158295,179.527039 
	C81.720604,179.979568 81.869011,180.509689 82.017418,181.039795 
z"/>
<path fill="#EDEDED" opacity="1.000000" stroke="none" 
	d="
M33.639839,154.802200 
	C35.347538,152.346771 36.465443,149.551178 38.523155,148.294800 
	C40.821907,146.891266 44.466537,145.708313 46.612324,146.607758 
	C48.670658,147.470520 50.212326,150.973434 50.812687,153.584717 
	C51.768417,157.741653 52.202137,162.138306 52.042713,166.403137 
	C51.818764,172.394287 48.587852,174.613113 42.696411,173.554504 
	C36.633640,172.465118 30.583269,171.306747 24.435328,170.161392 
	C24.973515,166.032013 24.973515,166.032013 38.070114,166.608719 
	C33.375057,163.834610 30.374214,160.498383 33.639839,154.802200 
z"/>
<path fill="#E6E6E6" opacity="1.000000" stroke="none" 
	d="
M116.890633,152.660934 
	C115.885262,152.847961 114.875465,153.209793 113.875473,153.184464 
	C111.982468,153.136551 110.095085,152.866379 108.205368,152.688538 
	C108.532555,150.814819 108.233559,148.359436 109.319427,147.190491 
	C111.470444,144.874893 113.125923,144.304611 110.440140,140.229111 
	C108.517776,137.312057 111.337730,131.242966 112.119064,126.593201 
	C112.278969,125.641609 112.782784,124.747803 113.381607,123.411743 
	C113.998665,122.995712 114.362183,122.995308 114.899429,123.333450 
	C116.978271,127.110413 118.733742,130.355453 113.900658,133.167740 
	C111.301270,134.680298 112.623741,136.591507 114.617805,137.597336 
	C117.481499,139.041809 119.975540,138.330292 121.920334,135.854553 
	C122.439110,136.459259 122.789223,136.758392 123.139343,137.057526 
	C120.457314,141.136642 117.775291,145.215744 115.155991,149.777985 
	C115.143028,150.580460 115.162842,150.882553 115.278160,151.167435 
	C115.339569,151.636078 115.400986,152.104706 116.174286,152.673264 
	C116.886185,152.773178 116.890633,152.660934 116.890633,152.660934 
z"/>
<path fill="#EBEBEB" opacity="1.000000" stroke="none" 
	d="
M114.725708,122.994904 
	C114.362183,122.995308 113.998665,122.995712 113.362473,122.996246 
	C110.614403,117.747246 113.250313,113.580872 116.505913,110.085388 
	C120.182274,106.138138 125.147377,105.263603 130.221786,107.184120 
	C134.750702,108.898155 136.502274,112.806320 136.925583,117.345634 
	C137.587204,124.440773 135.496078,128.744812 130.085999,130.656403 
	C131.075516,127.985878 132.629990,126.147202 133.288559,124.029869 
	C133.631927,122.925957 132.396957,121.331116 131.925613,119.547661 
	C132.101440,112.855263 128.815338,110.091553 122.697311,111.333405 
	C117.971344,112.292694 115.075912,116.528366 114.725708,122.994904 
z"/>
<path fill="#EBEBEB" opacity="1.000000" stroke="none" 
	d="
M123.440109,136.901398 
	C122.789223,136.758392 122.439110,136.459259 121.873184,135.457718 
	C121.411575,130.625580 120.803101,126.470894 121.084869,122.377480 
	C121.211052,120.544411 122.747604,117.915154 124.308823,117.279335 
	C126.772614,116.275940 130.039795,116.072899 130.853439,120.140633 
	C132.096970,123.042252 130.078201,124.724297 128.887329,126.791107 
	C128.182541,128.014297 124.838730,130.432037 129.667236,130.844452 
	C127.691788,132.811401 125.716331,134.778351 123.440109,136.901398 
z"/>
<path fill="#E4E4E4" opacity="1.000000" stroke="none" 
	d="
M117.161667,152.923401 
	C116.890633,152.660934 116.886185,152.773178 116.865715,152.830002 
	C117.201714,152.595673 117.739151,151.978333 117.888222,152.061020 
	C121.731438,154.193192 123.653137,157.919693 122.930710,161.833420 
	C122.457420,164.397430 119.988602,167.402985 117.603096,168.612946 
	C114.090378,170.394608 110.706322,168.432892 108.958389,164.923294 
	C107.409409,161.813156 106.404907,158.431839 105.160034,155.170258 
	C105.651886,154.936844 106.143730,154.703430 106.635582,154.470016 
	C107.739037,156.304947 108.723564,158.225800 109.973091,159.955170 
	C111.980705,162.733749 114.024170,166.576050 118.174103,164.182877 
	C122.127098,161.903290 119.600967,158.397964 118.495583,155.404556 
	C118.212746,154.638611 117.790756,153.924042 117.161667,152.923401 
z"/>
<path fill="#DEDEDE" opacity="1.000000" stroke="none" 
	d="
M26.986877,97.876884 
	C32.498257,103.434563 37.752155,108.731163 43.006058,114.027771 
	C42.848701,114.431862 42.691341,114.835953 42.533985,115.240044 
	C40.601395,114.562500 38.098324,114.428116 36.841045,113.107597 
	C32.743576,108.804054 29.084555,104.080574 25.359407,99.436401 
	C25.241991,99.290016 26.247425,98.242973 26.986877,97.876884 
z"/>
<path fill="#D1D1D1" opacity="1.000000" stroke="none" 
	d="
M82.409073,181.029419 
	C81.869011,180.509689 81.720604,179.979568 81.375610,179.255554 
	C81.541557,177.287460 81.904091,175.513290 82.164856,173.355713 
	C83.843315,173.354477 85.623543,173.736603 88.055878,174.052094 
	C89.214096,174.026489 89.720215,174.067520 90.226334,174.108551 
	C88.586060,178.282135 86.945786,182.455719 85.305519,186.629303 
	C84.956703,186.647705 84.607895,186.666107 84.259087,186.684509 
	C83.772964,184.796021 83.286842,182.907532 82.409073,181.029419 
z"/>
<path fill="#D1D1D1" opacity="1.000000" stroke="none" 
	d="
M20.681742,112.251984 
	C21.744947,112.774872 22.895676,113.421143 23.199589,113.142792 
	C27.258905,109.425079 27.302034,109.393471 30.998280,113.268524 
	C25.177816,116.118225 20.554031,115.930107 17.577682,112.722504 
	C15.103328,110.055908 15.800414,108.233910 19.893045,107.141640 
	C20.056055,108.764404 20.215832,110.354973 20.681742,112.251984 
z"/>
<path fill="#282828" opacity="1.000000" stroke="none" 
	d="
M168.080017,203.571243 
	C167.699997,203.626099 167.029266,203.338165 166.867706,202.873291 
	C165.220612,198.133606 163.424988,193.531677 158.188538,191.043304 
	C157.954498,190.551056 157.967102,190.235504 157.993408,189.446472 
	C165.343781,191.108826 168.342850,195.351669 168.080017,203.571243 
z"/>
<path fill="#E0E0E0" opacity="1.000000" stroke="none" 
	d="
M129.642670,130.773315 
	C124.838730,130.432037 128.182541,128.014297 128.887329,126.791107 
	C130.078201,124.724297 132.096970,123.042252 131.049225,120.143829 
	C131.483688,119.976089 131.874893,119.958015 131.874893,119.958015 
	C132.396957,121.331116 133.631927,122.925957 133.288559,124.029869 
	C132.629990,126.147202 131.075516,127.985878 129.739838,130.314331 
	C129.586945,130.688507 129.618118,130.702194 129.642670,130.773315 
z"/>
<path fill="#E4E4E4" opacity="1.000000" stroke="none" 
	d="
M126.159103,215.934814 
	C126.018013,213.294083 126.196953,210.646820 126.375885,207.999573 
	C126.917923,208.051758 127.459961,208.103943 128.001999,208.156113 
	C128.001999,210.760345 128.001999,213.364563 128.005524,216.402908 
	C127.499062,216.534103 126.989090,216.231201 126.159103,215.934814 
z"/>
<path fill="#E7E7E7" opacity="1.000000" stroke="none" 
	d="
M90.558632,173.971756 
	C89.720215,174.067520 89.214096,174.026489 88.331039,173.920715 
	C88.106125,171.627274 87.211304,168.705597 91.570236,168.993378 
	C91.610291,170.604721 91.250610,172.219849 90.558632,173.971756 
z"/>
<path fill="#E4E4E4" opacity="1.000000" stroke="none" 
	d="
M124.901001,196.731689 
	C124.468864,197.003891 124.087708,196.999847 123.420715,197.001587 
	C123.196045,196.720612 123.163849,196.337906 123.338608,196.167831 
	C123.661537,195.853500 124.105736,195.663773 124.499420,195.422150 
	C124.650269,195.766586 124.801125,196.111038 124.901001,196.731689 
z"/>
<path fill="#131313" opacity="1.000000" stroke="none" 
	d="
M47.119972,112.880783 
	C47.664944,113.283859 48.184578,114.049294 48.413658,114.926498 
	C47.780277,114.439880 47.437454,113.841515 47.119972,112.880783 
z"/>
<path fill="#101010" opacity="1.000000" stroke="none" 
	d="
M115.614807,151.214813 
	C115.162842,150.882553 115.143028,150.580460 115.290863,150.118317 
	C115.559158,150.404404 115.755302,150.833298 115.614807,151.214813 
z"/>
<path fill="#E7E7E7" opacity="1.000000" stroke="none" 
	d="
M97.111389,165.340576 
	C97.369568,165.043686 97.634491,165.092224 98.275833,165.289551 
	C98.140884,165.520905 97.629517,165.603455 97.111389,165.340576 
z"/>
<path fill="#E7E7E7" opacity="1.000000" stroke="none" 
	d="
M99.120888,155.695023 
	C98.782990,155.949463 98.510498,155.809296 98.149300,155.390015 
	C98.390053,155.263031 98.765289,155.326202 99.120888,155.695023 
z"/>
<path fill="#101010" opacity="1.000000" stroke="none" 
	d="
M91.998367,105.218277 
	C91.240845,105.224388 90.483322,105.230492 89.141045,105.229012 
	C88.556290,105.221428 88.213745,105.545403 88.213745,105.545403 
	C88.213745,105.545403 88.369553,105.990608 88.369553,105.990608 
	C88.341827,107.114754 88.314102,108.238892 87.985107,109.718689 
	C87.215935,109.833328 86.748039,109.592323 86.280144,109.351311 
	C85.511108,108.694206 84.742073,108.037109 83.973038,107.380013 
	C83.586411,108.258568 83.175194,109.127296 82.819069,110.018044 
	C82.315254,111.278175 81.852127,112.554581 81.274376,114.080902 
	C79.506592,113.086617 78.288200,112.401337 77.650032,112.042397 
	C73.528488,113.728828 69.938354,115.197830 66.348213,116.666824 
	C66.455261,117.075684 66.562309,117.484550 66.669365,117.893410 
	C69.180931,118.201950 71.692497,118.510483 74.688049,119.214981 
	C76.094887,120.119278 77.017738,120.627609 77.940598,121.135941 
	C77.326904,122.077240 76.713219,123.018539 75.981339,124.141144 
	C78.625420,125.957306 81.249413,127.759674 83.873405,129.562042 
	C83.663589,129.994843 83.453773,130.427643 83.243965,130.860443 
	C77.538986,128.378006 71.756210,126.056541 66.159004,123.351151 
	C62.937473,121.794044 60.195774,121.138947 57.809254,124.924690 
	C57.404079,124.534904 56.998901,124.145126 56.593727,123.755341 
	C57.833149,121.650620 59.072567,119.545898 60.477417,117.160248 
	C57.376453,115.418533 56.447029,111.791603 58.637180,108.638733 
	C67.104065,96.450081 59.712715,82.592041 63.762913,69.568710 
	C65.368980,79.111855 66.931877,88.398476 68.494774,97.685089 
	C68.882561,97.707077 69.270340,97.729057 69.658127,97.751038 
	C70.870689,94.035065 72.083252,90.319092 73.295815,86.603111 
	C73.796219,86.723381 74.296623,86.843643 74.797028,86.963913 
	C74.797028,89.151482 74.797028,91.339050 74.797028,94.539230 
	C78.489670,92.218552 81.342415,90.069443 84.510757,88.601463 
	C85.869621,87.971855 88.021149,88.396347 89.571098,88.981468 
	C92.261200,89.997009 94.763596,91.509758 97.658562,92.972603 
	C96.657394,93.338936 95.396591,93.800270 93.572502,94.542030 
	C91.216881,94.303108 89.267235,94.073318 87.665512,93.203133 
	C84.491531,91.478760 81.980682,91.442810 79.731590,95.237228 
	C82.450569,95.465988 84.759323,95.852432 87.058807,95.803497 
	C89.740242,95.746437 92.413574,95.308830 95.090424,95.036346 
	C94.570343,96.045685 94.297676,97.615173 93.489456,97.972168 
	C88.755013,100.063362 83.895355,101.871101 79.077942,103.774467 
	C79.156914,104.180946 79.235886,104.587425 79.314857,104.993904 
	C84.629913,104.522057 89.944977,104.050209 96.849335,103.437271 
	C95.086349,105.220314 94.214607,106.101974 93.107704,106.260544 
	C92.581154,105.431068 92.289757,105.324677 91.998367,105.218277 
z"/>
<path fill="#171717" opacity="1.000000" stroke="none" 
	d="
M44.907051,92.820549 
	C46.100018,96.627159 46.489956,101.233345 51.344841,100.765465 
	C55.823074,100.333878 56.223515,95.914574 56.875637,92.362473 
	C57.524761,88.826691 57.872559,85.235596 59.384441,81.716171 
	C58.935837,87.691170 58.920753,93.749664 57.795029,99.594238 
	C57.419258,101.545158 54.379875,103.939781 52.234364,104.324066 
	C50.087788,104.708542 46.687298,103.516121 45.323620,101.819557 
	C41.405960,96.945534 42.107014,90.960396 42.023140,85.276962 
	C42.528313,85.191895 43.033482,85.106819 43.538651,85.021751 
	C43.970657,87.486229 44.402664,89.950699 44.907051,92.820549 
z"/>
<path fill="#131313" opacity="1.000000" stroke="none" 
	d="
M87.368286,117.395966 
	C88.860062,115.973793 90.655655,114.749298 91.749458,113.068192 
	C92.658020,111.671776 92.740891,109.738144 93.271912,107.731064 
	C95.070877,113.491310 96.739838,118.835274 98.313927,123.875473 
	C93.798401,123.257309 88.923904,122.590012 83.529213,121.610016 
	C83.006210,120.865433 83.003403,120.433556 83.000603,120.001671 
	C84.593575,119.388214 86.186539,118.774757 87.531921,117.796799 
	C87.284332,117.432304 87.368286,117.395966 87.368286,117.395966 
z"/>
<path fill="#3A3A3A" opacity="1.000000" stroke="none" 
	d="
M49.743618,69.024567 
	C49.940567,68.150696 50.101898,67.701439 50.263229,67.252174 
	C50.587875,67.261154 50.912518,67.270126 51.237160,67.279099 
	C51.237160,77.024651 51.237160,86.770195 51.237160,96.515747 
	C50.727440,96.524345 50.217720,96.532936 49.708000,96.541534 
	C49.708000,87.510750 49.708000,78.479958 49.743618,69.024567 
z"/>
<path fill="#E7E7E7" opacity="1.000000" stroke="none" 
	d="
M94.766418,95.004616 
	C92.413574,95.308830 89.740242,95.746437 87.058807,95.803497 
	C84.759323,95.852432 82.450569,95.465988 79.731590,95.237228 
	C81.980682,91.442810 84.491531,91.478760 87.665512,93.203133 
	C89.267235,94.073318 91.216881,94.303108 93.401428,94.870026 
	C94.009903,94.936028 94.226158,94.954460 94.766418,95.004616 
z"/>
<path fill="#E0E0E0" opacity="1.000000" stroke="none" 
	d="
M87.238319,117.038879 
	C87.368286,117.395966 87.284332,117.432304 87.262497,117.469757 
	C85.823517,117.233063 84.406364,116.958908 82.690987,116.627068 
	C83.852043,114.413696 84.968414,112.285522 86.182465,109.754326 
	C86.748039,109.592323 87.215935,109.833328 88.078682,110.131714 
	C88.018478,112.353325 87.563416,114.517555 87.238319,117.038879 
z"/>
<path fill="#E0E0E0" opacity="1.000000" stroke="none" 
	d="
M77.940521,120.778671 
	C77.017738,120.627609 76.094887,120.119278 75.090591,119.290497 
	C75.986252,119.453827 76.963348,119.937607 77.940521,120.778671 
z"/>
<path fill="#E0E0E0" opacity="1.000000" stroke="none" 
	d="
M82.811203,119.756470 
	C83.003403,120.433556 83.006210,120.865433 83.091019,121.610771 
	C82.490509,121.463028 81.807991,121.001831 81.125488,120.540634 
	C81.624260,120.197517 82.123032,119.854401 82.811203,119.756470 
z"/>
<path fill="#E7E7E7" opacity="1.000000" stroke="none" 
	d="
M90.246384,154.662964 
	C90.090279,155.505814 89.881538,156.384644 89.672806,157.263458 
	C89.277245,157.104614 88.881676,156.945755 88.486115,156.786896 
	C88.875816,156.145355 89.265518,155.503815 89.962128,154.726517 
	C90.269043,154.590759 90.193756,154.698944 90.246384,154.662964 
z"/>
<path fill="#E0E0E0" opacity="1.000000" stroke="none" 
	d="
M77.440781,115.123840 
	C78.002686,115.400459 78.323982,115.692703 78.645279,115.984940 
	C78.386833,116.094612 77.952347,116.352341 77.899300,116.289253 
	C77.613945,115.949982 77.423416,115.530952 77.440781,115.123840 
z"/>
<path fill="#E7E7E7" opacity="1.000000" stroke="none" 
	d="
M90.643776,161.740448 
	C90.629112,161.990448 90.495331,162.126678 90.361542,162.262909 
	C90.415909,162.050827 90.470284,161.838760 90.643776,161.740448 
z"/>
<path fill="#E7E7E7" opacity="1.000000" stroke="none" 
	d="
M89.255157,159.644318 
	C89.008621,159.629761 88.874138,159.497086 88.739655,159.364426 
	C88.948837,159.418350 89.158020,159.472275 89.255157,159.644318 
z"/>
<path fill="#040404" opacity="1.000000" stroke="none" 
	d="
M59.595207,139.394882 
	C59.162281,139.018173 58.729355,138.641464 58.296425,138.264771 
	C58.843208,138.247971 59.389992,138.231186 59.922791,138.650345 
	C59.908802,139.086304 59.595207,139.394882 59.595207,139.394882 
z"/>
<path fill="#E0E0E0" opacity="1.000000" stroke="none" 
	d="
M88.510590,105.944809 
	C88.369553,105.990608 88.213745,105.545403 88.213745,105.545403 
	C88.213745,105.545403 88.556290,105.221428 88.769211,105.322990 
	C88.944550,105.633270 88.834389,105.791428 88.510590,105.944809 
z"/>
<path fill="#040404" opacity="1.000000" stroke="none" 
	d="
M60.064667,138.931061 
	C60.531765,138.910934 60.843002,139.046051 61.242889,139.428772 
	C61.191196,139.811371 61.050854,139.946381 60.696129,140.280106 
	C60.158157,140.365356 59.909275,140.160919 59.665157,139.630203 
	C59.595207,139.394882 59.908802,139.086304 60.064667,138.931061 
z"/>
<path fill="#E0E0E0" opacity="1.000000" stroke="none" 
	d="
M92.076401,105.396851 
	C92.289757,105.324677 92.581154,105.431068 92.815033,105.794800 
	C92.503319,105.960495 92.302292,105.801590 92.076401,105.396851 
z"/>
<path fill="#040404" opacity="1.000000" stroke="none" 
	d="
M94.727112,215.919647 
	C93.813736,215.842133 93.213387,215.743271 92.613037,215.644409 
	C92.625702,215.506241 92.638367,215.368057 92.651031,215.229889 
	C93.530846,215.280746 94.410957,215.327469 95.289688,215.392883 
	C95.341362,215.396729 95.436882,215.608704 95.418495,215.626328 
	C95.307518,215.732773 95.169266,215.810776 94.727112,215.919647 
z"/>
<path fill="#040404" opacity="1.000000" stroke="none" 
	d="
M112.980743,192.154358 
	C113.045471,192.677612 112.850700,193.026962 112.655930,193.376312 
	C112.677704,192.911026 112.699471,192.445740 112.980743,192.154358 
z"/>
<path fill="#E4E4E4" opacity="1.000000" stroke="none" 
	d="
M125.937744,197.959991 
	C128.658508,200.402374 128.747391,201.568893 125.340988,204.653870 
	C125.548050,202.670639 125.755104,200.687408 125.950531,198.300522 
	C125.938904,197.896866 125.979401,197.982727 125.937744,197.959991 
z"/>
<path fill="#040404" opacity="1.000000" stroke="none" 
	d="
M70.319351,191.440186 
	C70.077026,191.477097 69.647896,191.263031 69.468292,190.884766 
	C69.856064,190.876801 69.994308,191.032990 70.319351,191.440186 
z"/>
<path fill="#131313" opacity="1.000000" stroke="none" 
	d="
M131.925613,119.547661 
	C131.874893,119.958015 131.483688,119.976089 131.287903,119.972900 
	C130.039795,116.072899 126.772614,116.275940 124.308823,117.279335 
	C122.747604,117.915154 121.211052,120.544411 121.084869,122.377480 
	C120.803101,126.470894 121.411575,130.625580 121.704529,135.152161 
	C119.975540,138.330292 117.481499,139.041809 114.617805,137.597336 
	C112.623741,136.591507 111.301270,134.680298 113.900658,133.167740 
	C118.733742,130.355453 116.978271,127.110413 114.899429,123.333450 
	C115.075912,116.528366 117.971344,112.292694 122.697311,111.333405 
	C128.815338,110.091553 132.101440,112.855263 131.925613,119.547661 
z"/>
</svg>